<svg width="92" height="92" viewBox="0 0 92 92" fill="none" xmlns="http://www.w3.org/2000/svg">
<rect x="26.8525" width="70" height="70" rx="13" transform="rotate(22.5573 26.8525 0)" fill="#C6B8FE"/>
<path d="M59.5274 53.7724L43.1976 60.5191C42.115 60.966 40.8993 60.9647 39.8178 60.5154C38.7363 60.0662 37.8774 59.2057 37.4302 58.1234L30.6856 41.7943C30.1246 40.4528 29.8341 39.0137 29.8308 37.5596C29.8274 36.1056 30.1114 34.6651 30.6662 33.3211C31.2211 31.977 32.0359 30.7558 33.064 29.7275C34.0921 28.6992 35.3132 27.8841 36.6572 27.329C38.0011 26.7739 39.4415 26.4897 40.8955 26.4928C42.3496 26.4958 43.7888 26.786 45.1304 27.3468C46.472 27.9075 47.6897 28.7277 48.7134 29.7603C49.7372 30.7929 50.5469 32.0175 51.0962 33.3639C53.7942 32.2891 56.807 32.3205 59.482 33.4514C62.1569 34.5822 64.2787 36.7214 65.3876 39.4056C66.4965 42.0898 66.5032 45.1027 65.4063 47.7918C64.3095 50.4809 62.1973 52.6296 59.5274 53.7724Z" stroke="white" stroke-width="2.5" stroke-linecap="round" stroke-linejoin="round"/>
</svg>
