<svg width="299.000000" height="250.052734" viewBox="0 0 299 250.053" fill="none" xmlns="http://www.w3.org/2000/svg" xmlns:xlink="http://www.w3.org/1999/xlink">
	<desc>
			Created with Pixso.
	</desc>
	<defs/>
	<mask id="mask_62_2265" fill="white">
		<path id="Union" d="M20.5 0.5L278.5 0.5C289.546 0.5 298.5 9.4541 298.5 20.5L298.5 208.5C298.5 216.167 294.186 222.827 287.852 226.184C288.084 228.711 288.618 231.87 289.648 235.657C291.295 241.712 292.69 245.619 293.652 247.886C294.013 248.737 293.198 249.784 292.329 249.485C287.316 247.759 279.502 243.986 274.179 239.673C269.624 235.981 266.417 232.196 263.892 228.5L20.5 228.5C9.4541 228.5 0.5 219.546 0.5 208.5L0.5 20.5C0.5 9.4541 9.4541 0.5 20.5 0.5Z" clip-rule="evenodd" fill="" fill-opacity="1.000000" fill-rule="evenodd"/>
	</mask>
	<path id="Union" d="M20.5 0.5L278.5 0.5C289.546 0.5 298.5 9.4541 298.5 20.5L298.5 208.5C298.5 216.167 294.186 222.827 287.852 226.184C288.084 228.711 288.618 231.87 289.648 235.657C291.295 241.712 292.69 245.619 293.652 247.886C294.013 248.737 293.198 249.784 292.329 249.485C287.316 247.759 279.502 243.986 274.179 239.673C269.624 235.981 266.417 232.196 263.892 228.5L20.5 228.5C9.4541 228.5 0.5 219.546 0.5 208.5L0.5 20.5C0.5 9.4541 9.4541 0.5 20.5 0.5Z" clip-rule="evenodd" fill="#D3F26A" fill-opacity="0.000000" fill-rule="evenodd" mask="url(#mask_62_2265)"/>
	<path id="Union" d="M20.5 0L278.5 0Q286.991 0 292.996 6.00391Q299 12.0088 299 20.5L299 208.5Q299 220.842 288.086 226.625L287.852 226.184L288.35 226.138Q288.745 230.432 290.13 235.525Q292.236 243.268 294.112 247.69Q294.503 248.612 293.84 249.432Q293.143 250.294 292.166 249.958Q281.577 246.312 273.864 240.062Q267.86 235.196 263.479 228.782L263.892 228.5L263.892 229L20.5 229Q12.0088 229 6.00439 222.996Q0 216.992 0 208.5L0 20.5Q0 12.0088 6.00439 6.00391Q12.0088 0 20.5 0ZM20.5 1Q12.4229 1 6.71143 6.71094Q1 12.4229 1 20.5L1 208.5Q1 216.577 6.71143 222.289Q12.4229 228 20.5 228L264.156 228L264.305 228.218Q268.604 234.512 274.494 239.285Q282.069 245.423 292.491 249.013Q292.806 249.121 293.063 248.803Q293.348 248.45 293.192 248.081Q291.289 243.596 289.166 235.788Q287.757 230.61 287.354 226.229L287.324 225.897L287.618 225.741Q298 220.24 298 208.5L298 20.5Q298 12.4229 292.289 6.71094Q286.577 1 278.5 1L20.5 1Z" fill="#1F201F" fill-opacity="1.000000" fill-rule="nonzero"/>
</svg>
