<svg width="37" height="39" viewBox="0 0 37 39" fill="none" xmlns="http://www.w3.org/2000/svg">
<path d="M9.5071 30.287C9.96985 30.6753 10.5679 30.8638 11.1697 30.8112C11.7715 30.7585 12.3277 30.469 12.716 30.0062L24.3116 16.1872L25.049 24.6159C25.1211 25.2017 25.4178 25.7366 25.8766 26.1079C26.3353 26.4792 26.9202 26.658 27.5082 26.6065C28.0961 26.5551 28.6411 26.2775 29.0284 25.8321C29.4156 25.3868 29.6149 24.8085 29.5843 24.2191L28.3677 10.3138C28.3147 9.71257 28.0253 9.15692 27.5629 8.76893C27.1005 8.38095 26.503 8.19236 25.9017 8.24459L11.9964 9.46115C11.6909 9.47704 11.3918 9.5543 11.1168 9.68831C10.8419 9.82232 10.5967 10.0103 10.396 10.2411C10.1953 10.472 10.0431 10.7408 9.94856 11.0317C9.85401 11.3226 9.81902 11.6296 9.84568 11.9343C9.87234 12.239 9.9601 12.5352 10.1037 12.8053C10.2474 13.0754 10.4439 13.3137 10.6816 13.5062C10.9194 13.6986 11.1935 13.8412 11.4875 13.9254C11.7816 14.0097 12.0896 14.0338 12.3932 13.9964L20.8219 13.259L9.22635 27.0781C8.41818 28.0412 8.54395 29.4788 9.5071 30.287Z" fill="#1F201F"/>
</svg>
