<svg width="172" height="24" viewBox="0 0 172 24" fill="none" xmlns="http://www.w3.org/2000/svg">
<g clip-path="url(#clip0_55_140)">
<path d="M5.55823 3.27538H0V0H15.1362V3.27538H9.57801V17.3695H5.55823V3.27538Z" fill="#FF0E0E"/>
<path d="M22.0213 17.568C20.6152 17.568 19.3497 17.2785 18.2248 16.6995C17.1165 16.104 16.248 15.2851 15.6194 14.243C14.9908 13.2008 14.6765 12.018 14.6765 10.6946C14.6765 9.37124 14.9908 8.18847 15.6194 7.1463C16.248 6.10413 17.1165 5.29356 18.2248 4.71458C19.3497 4.11905 20.6152 3.82129 22.0213 3.82129C23.4274 3.82129 24.6846 4.11905 25.793 4.71458C26.9013 5.29356 27.7698 6.10413 28.3984 7.1463C29.027 8.18847 29.3413 9.37124 29.3413 10.6946C29.3413 12.018 29.027 13.2008 28.3984 14.243C27.7698 15.2851 26.9013 16.104 25.793 16.6995C24.6846 17.2785 23.4274 17.568 22.0213 17.568ZM22.0213 14.3918C23.0138 14.3918 23.8244 14.061 24.453 13.3993C25.0982 12.7211 25.4208 11.8195 25.4208 10.6946C25.4208 9.56975 25.0982 8.67647 24.453 8.01477C23.8244 7.33654 23.0138 6.99742 22.0213 6.99742C21.0288 6.99742 20.2099 7.33654 19.5648 8.01477C18.9196 8.67647 18.597 9.56975 18.597 10.6946C18.597 11.8195 18.9196 12.7211 19.5648 13.3993C20.2099 14.061 21.0288 14.3918 22.0213 14.3918Z" fill="#FF0E0E"/>
<path d="M39.8194 3.82129C41.06 3.82129 42.1849 4.11078 43.194 4.68976C44.2196 5.2522 45.0219 6.0545 45.6009 7.09667C46.1799 8.1223 46.4694 9.32162 46.4694 10.6946C46.4694 12.0676 46.1799 13.2752 45.6009 14.3174C45.0219 15.343 44.2196 16.1453 43.194 16.7243C42.1849 17.2867 41.06 17.568 39.8194 17.568C38.1155 17.568 36.7756 17.0303 35.7996 15.9551V22.1833H31.9287V4.0198H35.6259V5.55824C36.5853 4.40027 37.9832 3.82129 39.8194 3.82129ZM39.1494 14.3918C40.1419 14.3918 40.9525 14.061 41.5811 13.3993C42.2263 12.7211 42.5489 11.8195 42.5489 10.6946C42.5489 9.56975 42.2263 8.67647 41.5811 8.01477C40.9525 7.33654 40.1419 6.99742 39.1494 6.99742C38.1569 6.99742 37.338 7.33654 36.6929 8.01477C36.0643 8.67647 35.75 9.56975 35.75 10.6946C35.75 11.8195 36.0643 12.7211 36.6929 13.3993C37.338 14.061 38.1569 14.3918 39.1494 14.3918Z" fill="#FF0E0E"/>
<path d="M62.2593 14.6896H54.1949L52.6564 18.4116H48.5374L56.2792 1.04218H60.2494L68.016 18.4116H63.7977L62.2593 14.6896ZM60.9938 11.6375L58.2395 4.98752L55.4852 11.6375H60.9938Z" fill="#1F201F"/>
<path d="M75.8755 18.6101C74.4528 18.6101 73.1708 18.3206 72.0294 17.7417C70.9045 17.1461 70.0195 16.3273 69.3743 15.2851C68.7457 14.243 68.4314 13.0602 68.4314 11.7368C68.4314 10.4134 68.7457 9.23063 69.3743 8.18847C70.0195 7.1463 70.9045 6.33572 72.0294 5.75674C73.1708 5.16122 74.4528 4.86346 75.8755 4.86346C77.2816 4.86346 78.5057 5.16122 79.5479 5.75674C80.6066 6.33572 81.3758 7.17111 81.8555 8.26291L78.8531 9.87579C78.1583 8.65165 77.1575 8.03959 75.8507 8.03959C74.8416 8.03959 74.0062 8.37043 73.3445 9.03212C72.6828 9.69382 72.352 10.5954 72.352 11.7368C72.352 12.8782 72.6828 13.7798 73.3445 14.4415C74.0062 15.1032 74.8416 15.434 75.8507 15.434C77.174 15.434 78.1749 14.8219 78.8531 13.5978L81.8555 15.2355C81.3758 16.2942 80.6066 17.1213 79.5479 17.7168C78.5057 18.3124 77.2816 18.6101 75.8755 18.6101Z" fill="#1F201F"/>
<path d="M89.4688 4.86346C91.5366 4.86346 93.1247 5.35973 94.233 6.35227C95.3413 7.32827 95.8955 8.8088 95.8955 10.7939V18.4116H92.2727V16.7491C91.5449 17.9898 90.1884 18.6101 88.2033 18.6101C87.1777 18.6101 86.2844 18.4364 85.5235 18.089C84.7791 17.7417 84.2084 17.2619 83.8113 16.6499C83.4143 16.0378 83.2158 15.343 83.2158 14.5655C83.2158 13.3249 83.679 12.3489 84.6054 11.6375C85.5483 10.9262 86.9957 10.5706 88.9477 10.5706H92.0246C92.0246 9.7269 91.7682 9.08175 91.2554 8.63511C90.7426 8.17192 89.9734 7.94033 88.9477 7.94033C88.2364 7.94033 87.5334 8.05613 86.8386 8.28772C86.1604 8.50277 85.5814 8.80053 85.1016 9.18101L83.7121 6.47633C84.4399 5.96352 85.3084 5.56651 86.3175 5.28529C87.3431 5.00407 88.3936 4.86346 89.4688 4.86346ZM89.1711 16.0047C89.8327 16.0047 90.42 15.8558 90.9328 15.5581C91.4456 15.2438 91.8096 14.7888 92.0246 14.1933V12.8286H89.3696C87.7815 12.8286 86.9875 13.3497 86.9875 14.3918C86.9875 14.8881 87.1777 15.2851 87.5582 15.5829C87.9552 15.8641 88.4928 16.0047 89.1711 16.0047Z" fill="#1F201F"/>
<path d="M113.142 0V18.4116H109.445V16.8732C108.485 18.0311 107.096 18.6101 105.276 18.6101C104.019 18.6101 102.877 18.3289 101.852 17.7665C100.843 17.204 100.049 16.4017 99.4696 15.3596C98.8906 14.3174 98.6011 13.1098 98.6011 11.7368C98.6011 10.3638 98.8906 9.15618 99.4696 8.11402C100.049 7.07185 100.843 6.26955 101.852 5.70711C102.877 5.14467 104.019 4.86345 105.276 4.86345C106.98 4.86345 108.312 5.40107 109.271 6.47632V0H113.142ZM105.946 15.434C106.922 15.434 107.733 15.1032 108.378 14.4415C109.023 13.7632 109.345 12.8617 109.345 11.7368C109.345 10.6119 109.023 9.71862 108.378 9.05693C107.733 8.37869 106.922 8.03958 105.946 8.03958C104.954 8.03958 104.135 8.37869 103.49 9.05693C102.844 9.71862 102.522 10.6119 102.522 11.7368C102.522 12.8617 102.844 13.7632 103.49 14.4415C104.135 15.1032 104.954 15.434 105.946 15.434Z" fill="#1F201F"/>
<path d="M129.801 11.7864C129.801 11.836 129.777 12.1834 129.727 12.8286H119.628C119.81 13.6557 120.24 14.3091 120.918 14.7888C121.596 15.2686 122.44 15.5084 123.449 15.5084C124.144 15.5084 124.756 15.4092 125.285 15.2107C125.831 14.9956 126.336 14.6648 126.799 14.2181L128.858 16.4514C127.601 17.8905 125.765 18.6101 123.35 18.6101C121.844 18.6101 120.513 18.3206 119.355 17.7417C118.197 17.1461 117.304 16.3273 116.675 15.2851C116.046 14.243 115.732 13.0602 115.732 11.7368C115.732 10.4299 116.038 9.25545 116.65 8.21328C117.279 7.15457 118.131 6.33572 119.206 5.75674C120.298 5.16122 121.514 4.86346 122.854 4.86346C124.16 4.86346 125.343 5.14468 126.402 5.70712C127.461 6.26956 128.288 7.08013 128.883 8.13884C129.495 9.18101 129.801 10.3969 129.801 11.7864ZM122.878 7.79145C122.002 7.79145 121.265 8.03959 120.67 8.53586C120.074 9.03213 119.711 9.71036 119.578 10.5706H126.154C126.021 9.7269 125.657 9.05694 125.062 8.56067C124.466 8.04786 123.739 7.79145 122.878 7.79145Z" fill="#1F201F"/>
<path d="M149.475 4.86346C151.146 4.86346 152.469 5.35973 153.445 6.35227C154.438 7.32827 154.934 8.80053 154.934 10.7691V18.4116H151.063V11.3646C151.063 10.3059 150.84 9.52012 150.393 9.00731C149.963 8.47796 149.343 8.21328 148.532 8.21328C147.622 8.21328 146.903 8.51104 146.373 9.10657C145.844 9.68555 145.579 10.554 145.579 11.712V18.4116H141.708V11.3646C141.708 9.26372 140.865 8.21328 139.177 8.21328C138.284 8.21328 137.573 8.51104 137.043 9.10657C136.514 9.68555 136.249 10.554 136.249 11.712V18.4116H132.378V5.06196H136.076V6.6004C136.572 6.03796 137.176 5.60786 137.887 5.3101C138.615 5.01234 139.409 4.86346 140.269 4.86346C141.212 4.86346 142.064 5.05369 142.825 5.43417C143.586 5.7981 144.198 6.33572 144.661 7.04704C145.207 6.35227 145.894 5.81464 146.721 5.43417C147.564 5.05369 148.482 4.86346 149.475 4.86346Z" fill="#1F201F"/>
<path d="M171.412 5.06195L165.382 19.2305C164.77 20.7689 164.009 21.8524 163.099 22.481C162.206 23.1096 161.122 23.4239 159.849 23.4239C159.154 23.4239 158.467 23.3164 157.789 23.1014C157.111 22.8863 156.557 22.5886 156.127 22.2081L157.541 19.4538C157.839 19.7185 158.178 19.9252 158.558 20.0741C158.955 20.223 159.344 20.2974 159.724 20.2974C160.254 20.2974 160.684 20.1651 161.015 19.9004C161.346 19.6523 161.643 19.2305 161.908 18.6349L161.958 18.5109L156.176 5.06195H160.171L163.918 14.1189L167.69 5.06195H171.412Z" fill="#1F201F"/>
</g>
<defs>
<clipPath id="clip0_55_140">
<rect width="172" height="24" fill="white"/>
</clipPath>
</defs>
</svg>
