<svg width="646" height="255" viewBox="0 0 646 255" fill="none" xmlns="http://www.w3.org/2000/svg">
<path d="M596.246 229L596.619 228.667L596.47 228.5H596.246V229ZM614.634 243.877L614.387 244.312L614.634 243.877ZM643.333 253.662L643.412 253.168L643.333 253.662ZM644.405 251.84L644.825 251.568L644.825 251.568L644.405 251.84ZM636.095 235.442L636.553 235.242L636.095 235.442ZM631.462 220.939L631.121 220.573L630.922 220.759L630.97 221.027L631.462 220.939ZM1.5 31C1.5 14.7076 14.7076 1.5 31 1.5V0.5C14.1553 0.5 0.5 14.1553 0.5 31H1.5ZM1.5 199V31H0.5V199H1.5ZM31 228.5C14.7076 228.5 1.5 215.292 1.5 199H0.5C0.5 215.845 14.1553 229.5 31 229.5V228.5ZM596.246 228.5H31V229.5H596.246V228.5ZM595.873 229.333C600.452 234.461 606.165 239.644 614.387 244.312L614.881 243.442C606.77 238.838 601.139 233.73 596.619 228.667L595.873 229.333ZM614.387 244.312C623.208 249.32 635.835 252.973 643.254 254.156L643.412 253.168C636.078 251.999 623.573 248.377 614.881 243.442L614.387 244.312ZM643.254 254.156C643.969 254.27 644.544 253.853 644.835 253.347C645.124 252.844 645.199 252.147 644.825 251.568L643.985 252.112C644.115 252.312 644.112 252.599 643.968 252.848C643.826 253.096 643.613 253.2 643.412 253.168L643.254 254.156ZM644.825 251.568C643.102 248.907 640.267 243.781 636.553 235.242L635.636 235.641C639.363 244.211 642.223 249.389 643.985 252.112L644.825 251.568ZM636.553 235.242C633.967 229.296 632.606 224.472 631.954 220.85L630.97 221.027C631.637 224.733 633.023 229.632 635.636 235.641L636.553 235.242ZM640.5 199C640.5 207.516 636.893 215.188 631.121 220.573L631.803 221.304C637.769 215.738 641.5 207.804 641.5 199H640.5ZM640.5 31V199H641.5V31H640.5ZM611 1.5C627.292 1.5 640.5 14.7076 640.5 31H641.5C641.5 14.1553 627.845 0.5 611 0.5V1.5ZM31 1.5H611V0.5H31V1.5Z" fill="#1F201F"/>
</svg>
