<svg width="75" height="75" viewBox="0 0 75 75" fill="none" xmlns="http://www.w3.org/2000/svg">
<rect y="27.7203" width="54" height="54" rx="10.0286" transform="rotate(-30.8866 0 27.7203)" fill="#C6B8FE"/>
<g clip-path="url(#clip0_24_1356)">
<g clip-path="url(#clip1_24_1356)">
<path d="M43.5666 32.326L42.8617 31.7526C42.8045 31.8228 41.456 33.5086 40.9553 36.5501C40.6662 38.3066 40.7146 40.1683 41.0991 42.0835C41.1635 42.404 41.2382 42.7263 41.3215 43.0499C41.0758 42.8235 40.8271 42.6053 40.5751 42.397C39.0694 41.1525 37.4518 40.2296 35.7674 39.6537C32.8507 38.6567 30.7277 39.0478 30.6387 39.065L30.9778 40.8494C31.5988 40.7364 33.299 40.7082 35.2885 41.4102C36.7501 41.9259 38.1614 42.7472 39.4831 43.8513C41.1537 45.2467 42.6868 47.1011 44.04 49.3631L45.5988 48.4305C44.2456 46.1686 43.3366 43.9408 42.897 41.8089C42.5491 40.1222 42.4927 38.4903 42.7295 36.9586C43.0518 34.8736 43.8805 33.3889 44.2737 32.8951L43.5666 32.326Z" fill="white"/>
<path d="M34.6746 33.7084L36.2333 32.7758L38.3145 36.2547L36.7558 37.1872L34.6746 33.7084Z" fill="white"/>
<path d="M26.6469 42.867C27.9362 42.0957 28.3576 40.4193 27.5863 39.13C26.815 37.8408 25.1386 37.4194 23.8494 38.1907C22.5601 38.962 22.1387 40.6384 22.91 41.9276C23.6813 43.2169 25.3576 43.6383 26.6469 42.867ZM24.7819 39.7494C25.2116 39.4923 25.7704 39.6328 26.0275 40.0626C26.2846 40.4923 26.1442 41.0511 25.7144 41.3082C25.2847 41.5653 24.7259 41.4248 24.4688 40.9951C24.2117 40.5653 24.3521 40.0066 24.7819 39.7494Z" fill="white"/>
<path d="M48.0993 30.033C49.3886 29.2617 49.81 27.5853 49.0387 26.296C48.2674 25.0068 46.591 24.5854 45.3018 25.3567C44.0125 26.128 43.5911 27.8044 44.3624 29.0936C45.1337 30.3829 46.8101 30.8043 48.0993 30.033ZM46.2343 26.9155C46.664 26.6584 47.2228 26.7988 47.4799 27.2286C47.737 27.6583 47.5966 28.2171 47.1668 28.4742C46.7371 28.7313 46.1783 28.5909 45.9212 28.1611C45.6641 27.7314 45.8045 27.1726 46.2343 26.9155Z" fill="white"/>
<path d="M33.0979 31.073L34.6567 30.1405C33.7616 28.6443 34.2506 26.6989 35.7468 25.8039L34.8142 24.2451C33.3181 25.1402 31.3727 24.6512 30.4777 23.155L28.9189 24.0876C29.814 25.5837 29.325 27.5291 27.8288 28.4241L28.7613 29.9829C30.2575 29.0878 32.2029 29.5768 33.0979 31.073ZM31.1685 26.0788C31.6917 26.3107 32.2523 26.4516 32.823 26.4947C32.5911 27.018 32.4502 27.5785 32.4071 28.1492C31.8838 27.9173 31.3233 27.7764 30.7526 27.7333C30.9845 27.2101 31.1254 26.6495 31.1685 26.0788Z" fill="white"/>
<path d="M30.3898 45.2719L28.831 46.2044C29.7261 47.7005 29.2371 49.6459 27.7409 50.541L28.6735 52.0997C30.1696 51.2047 32.115 51.6937 33.01 53.1898L34.5688 52.2573C33.6737 50.7611 34.1627 48.8158 35.6589 47.9207L34.7263 46.3619C33.2301 47.257 31.2848 46.768 30.3898 45.2719ZM32.3192 50.266C31.796 50.0341 31.2354 49.8932 30.6647 49.8501C30.8966 49.3269 31.0375 48.7663 31.0806 48.1957C31.6038 48.4275 32.1644 48.5684 32.7351 48.6115C32.5032 49.1348 32.3623 49.6953 32.3192 50.266Z" fill="white"/>
<path d="M50.0072 33.5358L48.4484 34.4683C49.3435 35.9644 48.8545 37.9098 47.3584 38.8049L48.2909 40.3636C49.787 39.4686 51.7324 39.9576 52.6275 41.4537L54.1862 40.5212C53.2912 39.025 53.7802 37.0797 55.2763 36.1846L54.3438 34.6259C52.8476 35.5209 50.9023 35.0319 50.0072 33.5358ZM51.9366 38.5299C51.4134 38.2981 50.8528 38.1571 50.2822 38.114C50.514 37.5908 50.6549 37.0303 50.698 36.4596C51.2213 36.6914 51.7818 36.8323 52.3525 36.8755C52.1206 37.3987 51.9797 37.9592 51.9366 38.5299Z" fill="white"/>
</g>
</g>
<defs>
<clipPath id="clip0_24_1356">
<rect width="37" height="37" fill="white" transform="translate(11.8303 29.9657) rotate(-30.8866)"/>
</clipPath>
<clipPath id="clip1_24_1356">
<rect width="31" height="31" fill="white" transform="translate(16 30.9152) rotate(-30.89)"/>
</clipPath>
</defs>
</svg>
