<svg width="35" height="34" viewBox="0 0 35 34" fill="none" xmlns="http://www.w3.org/2000/svg">
<path d="M1.92373 17.8699L7.11825 21.6751L5.1455 27.8029C4.8267 28.7533 4.82266 29.7816 5.13399 30.7345C5.44532 31.6874 6.05534 32.5139 6.87312 33.0907C7.67688 33.686 8.65092 34.005 9.65008 33.9999C10.6492 33.9949 11.62 33.6663 12.4178 33.0629L17.4971 29.3133L22.5778 33.0585C23.3801 33.6504 24.3489 33.9719 25.3449 33.9768C26.3408 33.9817 27.3127 33.6696 28.1207 33.0856C28.9287 32.5015 29.5313 31.6755 29.8418 30.7263C30.1523 29.7771 30.1547 28.7536 29.8487 27.8029L27.8759 21.6751L33.0704 17.8699C33.8717 17.2823 34.4673 16.4557 34.7723 15.5083C35.0772 14.5608 35.0759 13.541 34.7684 12.5944C34.4609 11.6477 33.8631 10.8228 33.0602 10.2373C32.2574 9.6519 31.2907 9.3359 30.2981 9.33448H23.9173L21.981 3.28128C21.6765 2.32845 21.0782 1.49724 20.2723 0.90751C19.4664 0.317778 18.4946 0 17.4971 0C16.4995 0 15.5277 0.317778 14.7219 0.90751C13.916 1.49724 13.3176 2.32845 13.0132 3.28128L11.0769 9.33448H4.70192C3.70934 9.3359 2.74258 9.6519 1.93975 10.2373C1.13692 10.8228 0.53907 11.6477 0.231602 12.5944C-0.0758664 13.541 -0.0772273 14.5608 0.227713 15.5083C0.532654 16.4557 1.1283 17.2823 1.92957 17.8699H1.92373Z" fill="#CBF922"/>
</svg>
